<svg width="48" height="59" viewBox="0 0 48 59" fill="none" xmlns="http://www.w3.org/2000/svg">
<g clip-path="url(#clip0_1_2)">
<path d="M0 46H48V59H0V46Z" fill="#071942"/>
<path d="M17.479 52.7315C17.479 51.3795 18.5125 50.424 19.7865 50.424C20.729 50.424 21.5415 50.8985 21.886 51.7825H20.9955C20.755 51.3015 20.326 51.074 19.7865 51.074C18.8895 51.074 18.2395 51.711 18.2395 52.7315C18.2395 53.752 18.8895 54.3955 19.7865 54.3955C20.326 54.3955 20.755 54.168 20.9955 53.687H21.886C21.5415 54.571 20.729 55.039 19.7865 55.039C18.5125 55.039 17.479 54.09 17.479 52.7315ZM26.1268 53.7195C26.1268 54.3955 25.5743 55.0455 24.5668 55.0455C23.6633 55.0455 22.9678 54.5515 22.9678 53.752H23.7608C23.7933 54.1225 24.0533 54.4215 24.5668 54.4215C25.0868 54.4215 25.3793 54.142 25.3793 53.7585C25.3793 52.6665 22.9808 53.375 22.9808 51.711C22.9808 50.918 23.6113 50.424 24.5343 50.424C25.3988 50.424 26.0098 50.879 26.0748 51.6525H25.2558C25.2298 51.347 24.9633 51.0675 24.4953 51.0545C24.0663 51.0415 23.7348 51.2495 23.7348 51.685C23.7348 52.7055 26.1268 52.0685 26.1268 53.7195ZM30.3747 53.7195C30.3747 54.3955 29.8222 55.0455 28.8147 55.0455C27.9112 55.0455 27.2157 54.5515 27.2157 53.752H28.0087C28.0412 54.1225 28.3012 54.4215 28.8147 54.4215C29.3347 54.4215 29.6272 54.142 29.6272 53.7585C29.6272 52.6665 27.2287 53.375 27.2287 51.711C27.2287 50.918 27.8592 50.424 28.7822 50.424C29.6467 50.424 30.2577 50.879 30.3227 51.6525H29.5037C29.4777 51.347 29.2112 51.0675 28.7432 51.0545C28.3142 51.0415 27.9827 51.2495 27.9827 51.685C27.9827 52.7055 30.3747 52.0685 30.3747 53.7195Z" fill="white"/>
<path d="M0 0H48V46H0V0Z" fill="#102B69"/>
<path d="M38.9983 6L36.267 36.5964L23.9902 40L11.7471 36.6012L9.01875 6H38.9983Z" fill="#264DE4"/>
<path d="M24.0085 37.3985L33.9288 34.6482L36.2628 8.50211H24.0085V37.3985Z" fill="#2965F1"/>
<path d="M24.0085 19.8517H15.2734L15.6097 23.6047H24.0085V19.8517Z" fill="#EBEBEB"/>
<path d="M24.0085 12.2553H23.9955H14.5975L14.9386 16.0084H24.0085V12.2553Z" fill="#EBEBEB"/>
<path d="M15.7774 25.4814L16.3032 31.3743L23.9912 33.5086L24.0085 33.5038V29.5989L23.9921 29.6033L19.8122 28.4747L19.545 25.4814H17.5139H15.7774Z" fill="#EBEBEB"/>
<path d="M28.6171 23.6048L28.1814 28.4723L23.9955 29.6021V33.5067L31.6896 31.3743L31.7461 30.7402L32.628 20.8595L32.7196 19.8517L33.3971 12.2553H23.9955V16.0084H29.2841L28.9426 19.8517H23.9955V23.6048H28.6171Z" fill="white"/>
</g>
<defs>
<clipPath id="clip0_1_2">
<rect width="48" height="58.8" fill="white"/>
</clipPath>
</defs>
</svg>
