<svg width="48" height="59" viewBox="0 0 48 59" fill="none" xmlns="http://www.w3.org/2000/svg">
<path d="M0 46H48V59H0V46Z" fill="#311C4D"/>
<path d="M13.6622 55V50.4825H16.3207V51.087H14.4032V52.4195H15.8982V53.024H14.4032V55H13.6622ZM17.3324 55V50.4825H18.0734V55H17.3324ZM21.4318 50.424C22.3743 50.424 23.1868 50.8985 23.5313 51.7825H22.6408C22.4003 51.3275 21.9713 51.1 21.4318 51.1C20.5348 51.1 19.8848 51.737 19.8848 52.7315C19.8848 53.726 20.5348 54.3695 21.4318 54.3695C22.2508 54.3695 22.7643 53.8755 22.8748 53.115H21.1783V52.5235H23.6678V53.102C23.5313 54.1485 22.6473 55.039 21.4318 55.039C20.1578 55.039 19.1243 54.09 19.1243 52.7315C19.1243 51.3795 20.1578 50.424 21.4318 50.424ZM24.7236 55V50.4825H25.5231L27.1091 54.025L28.6886 50.4825H29.4816V55H28.7406V51.906L27.3626 55H26.8491L25.4646 51.906V55H24.7236ZM33.8291 55L33.5041 54.077H31.6126L31.2876 55H30.5141L32.1326 50.476H32.9906L34.6091 55H33.8291ZM33.2961 53.4725L32.5616 51.373L31.8206 53.4725H33.2961Z" fill="white"/>
<path d="M0 0H48V46H0V0Z" fill="#493069"/>
<g clip-path="url(#clip0_0_1)">
<path d="M18.5011 39C21.5365 39 24 36.6107 24 33.6667V28.3333H18.5011C15.4657 28.3333 13.0022 30.7227 13.0022 33.6667C13.0022 36.6107 15.4657 39 18.5011 39Z" fill="#0ACF83"/>
<path d="M13.0022 23C13.0022 20.056 15.4657 17.6667 18.5011 17.6667H24V28.3333H18.5011C15.4657 28.3333 13.0022 25.944 13.0022 23Z" fill="#A259FF"/>
<path d="M13.0021 12.3333C13.0021 9.38933 15.4656 7 18.501 7H23.9999V17.6667H18.501C15.4656 17.6667 13.0021 15.2773 13.0021 12.3333Z" fill="#F24E1E"/>
<path d="M24 7H29.4989C32.5343 7 34.9978 9.38933 34.9978 12.3333C34.9978 15.2773 32.5343 17.6667 29.4989 17.6667H24V7Z" fill="#FF7262"/>
<path d="M34.9978 23C34.9978 25.944 32.5343 28.3333 29.4989 28.3333C26.4635 28.3333 24 25.944 24 23C24 20.056 26.4635 17.6667 29.4989 17.6667C32.5343 17.6667 34.9978 20.056 34.9978 23Z" fill="#1ABCFE"/>
</g>
<defs>
<clipPath id="clip0_0_1">
<rect width="22" height="32" fill="white" transform="translate(13 7)"/>
</clipPath>
</defs>
</svg>
