<svg width="48" height="59" viewBox="0 0 48 59" fill="none" xmlns="http://www.w3.org/2000/svg">
<path d="M0 46H48V59H0V46Z" fill="#653F00"/>
<path d="M0 0H48V46H0V0Z" fill="#965E00"/>
<path d="M9.08364 55V50.4825H11.7421V51.087H9.82464V52.4195H11.3196V53.024H9.82464V55H9.08364ZM12.7539 55V50.4825H13.4949V55H12.7539ZM17.1912 51.8345C17.1912 51.3795 16.9312 51.087 16.3527 51.087H15.5337V52.6015H16.3527C16.9312 52.6015 17.1912 52.283 17.1912 51.8345ZM14.7927 50.4825H16.3527C17.4252 50.4825 17.9517 51.1 17.9517 51.8345C17.9517 52.3675 17.6657 52.9395 16.9052 53.128L18.0232 55H17.1392L16.0992 53.193H15.5337V55H14.7927V50.4825ZM21.7207 50.476V51.0805H19.9657V52.4065H21.5257V53.011H19.9657V54.3955H21.7207V55H19.2247V50.476H21.7207ZM25.5064 53.7065C25.5064 53.258 25.1684 52.985 24.6744 52.985H23.6994V54.3955H24.7004C25.2009 54.3955 25.5064 54.142 25.5064 53.7065ZM25.3894 51.737C25.3894 51.3275 25.0969 51.087 24.6159 51.087H23.6994V52.3805H24.6159C25.0969 52.3805 25.3894 52.153 25.3894 51.737ZM26.2474 53.7845C26.2474 54.4735 25.6884 55 24.7654 55H22.9584V50.4825H24.6809C25.6364 50.4825 26.1433 51.009 26.1433 51.646C26.1433 52.192 25.8118 52.5235 25.3764 52.6795C25.8574 52.764 26.2474 53.245 26.2474 53.7845ZM30.4261 55L30.1011 54.077H28.2096L27.8846 55H27.1111L28.7296 50.476H29.5876L31.2061 55H30.4261ZM29.8931 53.4725L29.1586 51.373L28.4176 53.4725H29.8931ZM35.2833 53.7195C35.2833 54.3955 34.7308 55.0455 33.7233 55.0455C32.8198 55.0455 32.1243 54.5515 32.1243 53.752H32.9173C32.9498 54.1225 33.2098 54.4215 33.7233 54.4215C34.2433 54.4215 34.5358 54.142 34.5358 53.7585C34.5358 52.6665 32.1373 53.375 32.1373 51.711C32.1373 50.918 32.7678 50.424 33.6908 50.424C34.5553 50.424 35.1663 50.879 35.2313 51.6525H34.4123C34.3863 51.347 34.1198 51.0675 33.6518 51.0545C33.2228 51.0415 32.8913 51.2495 32.8913 51.685C32.8913 52.7055 35.2833 52.0685 35.2833 53.7195ZM38.9787 50.476V51.0805H37.2237V52.4065H38.7837V53.011H37.2237V54.3955H38.9787V55H36.4827V50.476H38.9787Z" fill="white"/>
<g clip-path="url(#clip0_0_1)">
<path d="M27.4594 18.6416L23.9561 21.9009L20.7055 15.3439L22.3877 11.5727C22.8252 10.807 23.5077 10.8158 23.9342 11.5727L27.4594 18.6416Z" fill="#FFA000"/>
<path d="M20.7055 15.3439L23.9561 21.9009L10.8639 34.0798L20.7055 15.3439Z" fill="#F57F17"/>
<path d="M31.2908 13.6595C31.9164 13.058 32.5639 13.2636 32.7291 14.1156L36.1372 33.918L24.8409 40.6992C24.4472 40.918 23.3972 41.012 23.3972 41.012C23.3972 41.012 22.4413 40.8983 22.077 40.6839L10.8639 34.0798L31.2908 13.6595Z" fill="#FFCA28"/>
<path d="M20.7055 15.3439L10.865 34.0798L15.2477 6.69781C15.4095 5.84469 15.8952 5.76266 16.3283 6.51516L20.7055 15.3439Z" fill="#FFA000"/>
</g>
<defs>
<clipPath id="clip0_0_1">
<rect width="35" height="35" fill="white" transform="translate(6 6)"/>
</clipPath>
</defs>
</svg>
