<svg width="48" height="59" viewBox="0 0 48 59" fill="none" xmlns="http://www.w3.org/2000/svg">
<g clip-path="url(#clip0_1_2)">
<path d="M0 46H48V59H0V46Z" fill="#727272"/>
<path d="M10.7251 55V50.4825H13.3836V51.087H11.4661V52.4195H12.9611V53.024H11.4661V55H10.7251ZM14.3954 50.4825H15.1364V54.402H16.6639V55H14.3954V50.4825ZM17.602 53.349V50.4825H18.343V53.362C18.343 54.064 18.7395 54.3955 19.3635 54.3955C19.994 54.3955 20.3905 54.064 20.3905 53.362V50.4825H21.1315V53.349C21.1315 54.4995 20.2995 55.0455 19.357 55.0455C18.408 55.0455 17.602 54.4995 17.602 53.349ZM22.1873 51.087V50.4825H25.3398V51.087H24.1373V55H23.3963V51.087H22.1873ZM26.1813 51.087V50.4825H29.3338V51.087H28.1313V55H27.3903V51.087H26.1813ZM32.9052 50.476V51.0805H31.1502V52.4065H32.7102V53.011H31.1502V54.3955H32.9052V55H30.4092V50.476H32.9052ZM36.5414 51.8345C36.5414 51.3795 36.2814 51.087 35.7029 51.087H34.8839V52.6015H35.7029C36.2814 52.6015 36.5414 52.283 36.5414 51.8345ZM34.1429 50.4825H35.7029C36.7754 50.4825 37.3019 51.1 37.3019 51.8345C37.3019 52.3675 37.0159 52.9395 36.2554 53.128L37.3734 55H36.4894L35.4494 53.193H34.8839V55H34.1429V50.4825Z" fill="white"/>
<path d="M0 0H48V46H0V0Z" fill="#F4F4F4"/>
<mask id="mask0_1_2" style="mask-type:luminance" maskUnits="userSpaceOnUse" x="8" y="6" width="29" height="35">
<path d="M36.5452 22.1504L27.1239 31.5751L36.5452 40.9997H25.7794L16.3547 31.5751L25.7794 22.1504H36.5452ZM25.7794 6.00002L8.28122 23.4982L13.6658 28.8828L36.5452 6.00002H25.7794V6.00002Z" fill="white"/>
</mask>
<g mask="url(#mask0_1_2)">
<path d="M16.3581 31.575L21.7393 36.9596L36.5452 22.1504H25.7794L16.3581 31.575Z" fill="#39CEFD"/>
</g>
<mask id="mask1_1_2" style="mask-type:luminance" maskUnits="userSpaceOnUse" x="8" y="6" width="29" height="35">
<path d="M36.5452 22.1504L27.1239 31.5751L36.5452 40.9997H25.7794L16.3547 31.5751L25.7794 22.1504H36.5452ZM25.7794 6.00002L8.28122 23.4982L13.6658 28.8828L36.5452 6.00002H25.7794V6.00002Z" fill="white"/>
</mask>
<g mask="url(#mask1_1_2)">
<path d="M25.7794 6.00002H36.5452L13.6658 28.8828L8.28122 23.4982L25.7794 6.00002Z" fill="#39CEFD"/>
</g>
<mask id="mask2_1_2" style="mask-type:luminance" maskUnits="userSpaceOnUse" x="8" y="6" width="29" height="35">
<path d="M36.5452 22.1504L27.1239 31.5751L36.5452 40.9997H25.7794L16.3547 31.5751L25.7794 22.1504H36.5452ZM25.7794 6.00002L8.28122 23.4982L13.6658 28.8828L36.5452 6.00002H25.7794V6.00002Z" fill="white"/>
</mask>
<g mask="url(#mask2_1_2)">
<path d="M21.7393 36.9596L25.7794 40.9964H36.5452L27.1239 31.5751L21.7393 36.9596Z" fill="#03569B"/>
</g>
<mask id="mask3_1_2" style="mask-type:luminance" maskUnits="userSpaceOnUse" x="8" y="6" width="29" height="35">
<path d="M36.5452 22.1504L27.1239 31.5751L36.5452 40.9997H25.7794L16.3547 31.5751L25.7794 22.1504H36.5452ZM25.7794 6.00002L8.28122 23.4982L13.6658 28.8828L36.5452 6.00002H25.7794V6.00002Z" fill="white"/>
</mask>
<g mask="url(#mask3_1_2)">
<path d="M29.7252 34.1932L27.1239 31.5751L21.7393 36.9596L29.7252 34.1932Z" fill="url(#paint0_linear_1_2)"/>
</g>
<mask id="mask4_1_2" style="mask-type:luminance" maskUnits="userSpaceOnUse" x="8" y="6" width="29" height="35">
<path d="M36.5452 22.1504L27.1239 31.5751L36.5452 40.9997H25.7794L16.3547 31.5751L25.7794 22.1504H36.5452ZM25.7794 6.00002L8.28122 23.4982L13.6658 28.8828L36.5452 6.00002H25.7794V6.00002Z" fill="white"/>
</mask>
<g mask="url(#mask4_1_2)">
<path d="M16.3575 31.5732L21.7422 26.1885L27.1272 31.5732L21.7422 36.9579L16.3575 31.5732Z" fill="#16B9FD"/>
</g>
<path d="M36.5452 22.1504L27.1239 31.5751L36.5452 40.9997H25.7794L16.3547 31.5751L25.7794 22.1504H36.5452ZM25.7794 6.00002L8.28122 23.4982L13.6658 28.8828L36.5452 6.00002H25.7794Z" fill="url(#paint1_radial_1_2)"/>
</g>
<defs>
<linearGradient id="paint0_linear_1_2" x1="23.3107" y1="37.9988" x2="27.321" y2="33.9885" gradientUnits="userSpaceOnUse">
<stop stop-color="#1A237E" stop-opacity="0.4"/>
<stop offset="1" stop-color="#1A237E" stop-opacity="0"/>
</linearGradient>
<radialGradient id="paint1_radial_1_2" cx="0" cy="0" r="1" gradientUnits="userSpaceOnUse" gradientTransform="translate(9.07525 8.38549) scale(42.8179)">
<stop stop-color="white" stop-opacity="0.1"/>
<stop offset="1" stop-color="white" stop-opacity="0"/>
</radialGradient>
<clipPath id="clip0_1_2">
<rect width="48" height="58.8" fill="white"/>
</clipPath>
</defs>
</svg>
