<svg width="48" height="59" viewBox="0 0 48 59" fill="none" xmlns="http://www.w3.org/2000/svg">
<g clip-path="url(#clip0_1_2)">
<path d="M0 46H48V59H0V46Z" fill="#4B1700"/>
<path d="M18.4305 55V53.024H16.305V55H15.564V50.4825H16.305V52.4195H18.4305V50.4825H19.1715V55H18.4305ZM20.238 51.087V50.4825H23.3905V51.087H22.188V55H21.447V51.087H20.238ZM24.4659 55V50.4825H25.2654L26.8514 54.025L28.4309 50.4825H29.2239V55H28.4829V51.906L27.1049 55H26.5914L25.2069 51.906V55H24.4659ZM30.5229 50.4825H31.2639V54.402H32.7914V55H30.5229V50.4825Z" fill="white"/>
<path d="M0 0H48V46H0V0Z" fill="#722200"/>
<g clip-path="url(#clip1_1_2)">
<path d="M11.512 36.4385L9 6.05679L39 6.11785L36.3438 36.4385L24.1132 39.9432L11.512 36.4385Z" fill="#E34F26"/>
<path d="M24.1132 37.009V8.95026L36.4674 8.99096L34.2644 34.095L24.1132 37.009Z" fill="#EF652A"/>
<path d="M33.0702 15.9599L33.42 12.2512H14.4152L15.4652 23.6216H28.5813L28.0669 28.4711L23.8665 29.5916L19.6043 28.3691L19.3778 25.4757H15.6094L16.1243 31.3849L23.8662 33.5244L31.6698 31.3849L32.7198 19.8518H18.9452L18.554 15.9599H33.0702Z" fill="white"/>
</g>
</g>
<defs>
<clipPath id="clip0_1_2">
<rect width="48" height="58.8" fill="white"/>
</clipPath>
<clipPath id="clip1_1_2">
<rect width="30" height="34" fill="white" transform="translate(9 6)"/>
</clipPath>
</defs>
</svg>
