<svg width="48" height="59" viewBox="0 0 48 59" fill="none" xmlns="http://www.w3.org/2000/svg">
<g clip-path="url(#clip0_1_2)">
<path d="M0 46H48V59H0V46Z" fill="#4E7896"/>
<path d="M17.0927 53.739V50.4825H17.8402V53.739C17.8402 54.558 17.2877 55.0455 16.5077 55.0455C15.7277 55.0455 15.1752 54.558 15.1752 53.739H15.9227C15.9292 54.116 16.1112 54.389 16.5077 54.389C16.9042 54.389 17.0927 54.116 17.0927 53.739ZM22.4192 55L22.0942 54.077H20.2027L19.8777 55H19.1042L20.7227 50.476H21.5807L23.1992 55H22.4192ZM21.8862 53.4725L21.1517 51.373L20.4107 53.4725H21.8862ZM25.9959 54.2395L27.3414 50.4825H28.1214L26.4249 55H25.5669L23.8639 50.4825H24.6569L25.9959 54.2395ZM32.1146 55L31.7896 54.077H29.8981L29.5731 55H28.7996L30.4181 50.476H31.2761L32.8946 55H32.1146ZM31.5816 53.4725L30.8471 51.373L30.1061 53.4725H31.5816Z" fill="white"/>
<path d="M0 0H48V46H0V0Z" fill="#A2C8E3"/>
<g clip-path="url(#clip1_1_2)">
<path d="M19.3484 32.2862C19.3484 32.2862 18.0415 33.081 20.2568 33.3084C22.9237 33.6484 24.3442 33.5921 27.2959 33.0247C27.8891 33.388 28.5165 33.6922 29.1691 33.9331C22.5284 36.7721 14.1251 33.7631 19.3484 32.2862ZM18.4984 28.5962C18.4984 28.5962 17.0789 29.6746 19.2931 29.9031C22.1884 30.1867 24.459 30.2431 28.3775 29.4494C28.7586 29.8359 29.2252 30.1274 29.7396 30.3004C21.7347 32.6847 12.7651 30.5267 18.4984 28.5962ZM34.1671 35.0668C34.1671 35.0668 35.1318 35.8616 33.0886 36.4863C29.2849 37.6232 17.1362 37.9632 13.7299 36.4863C12.5377 35.9763 14.8083 35.2379 15.5361 35.1242C16.2746 34.9542 16.673 34.9542 16.673 34.9542C15.3661 34.0457 7.98706 36.8274 12.9266 37.6211C26.4947 39.8353 37.6786 36.6563 34.1586 35.0668H34.1671ZM19.9625 24.7351C19.9625 24.7351 13.7745 26.2119 17.7482 26.7219C19.4514 26.9493 22.8004 26.8919 25.9231 26.6656C28.4774 26.4382 31.0337 25.9856 31.0337 25.9856C31.0337 25.9856 30.1253 26.383 29.5006 26.7804C23.1999 28.4272 11.1066 27.6888 14.5703 25.9856C17.5219 24.5661 19.9636 24.7372 19.9636 24.7372L19.9625 24.7351ZM31.0337 30.9231C37.3917 27.6293 34.4401 24.4524 32.3959 24.8487C31.8859 24.9624 31.6574 25.0761 31.6574 25.0761C31.6574 25.0761 31.8274 24.7361 32.2248 24.6224C36.2559 23.2029 39.4349 28.8799 30.9179 31.0931C30.9179 31.0931 30.9742 31.0367 31.0316 30.9231H31.0337ZM20.5894 39.8927C26.72 40.2901 36.0881 39.6653 36.3144 36.7689C36.3144 36.7689 35.8607 37.9058 31.2622 38.7558C26.0389 39.7206 19.5672 39.6058 15.7635 38.9832C15.7635 38.9832 16.5582 39.6642 20.5894 39.8927Z" fill="#4E7896"/>
<path d="M27.1832 6.00107C27.1832 6.00107 30.7033 9.57744 23.8342 14.9707C18.3273 19.3418 22.5858 21.8398 23.8342 24.6788C20.5979 21.7834 18.271 19.2281 19.8605 16.8449C22.1874 13.3238 28.6027 11.6313 27.1832 6.00107ZM25.377 22.2945C27.0239 24.1677 24.9233 25.8709 24.9233 25.8709C24.9233 25.8709 29.1244 23.714 27.1939 21.045C25.4344 18.4908 24.0701 17.2413 31.4513 12.9838C31.4513 12.9838 19.8137 15.8791 25.377 22.2945Z" fill="#F58219"/>
</g>
</g>
<defs>
<clipPath id="clip0_1_2">
<rect width="48" height="58.8" fill="white"/>
</clipPath>
<clipPath id="clip1_1_2">
<rect width="34" height="34" fill="white" transform="translate(7 6)"/>
</clipPath>
</defs>
</svg>
