<svg width="48" height="59" viewBox="0 0 48 59" fill="none" xmlns="http://www.w3.org/2000/svg">
<g clip-path="url(#clip0_1_2)">
<path d="M0 46H48V59H0V46Z" fill="#918119"/>
<path d="M4.96488 53.739V50.4825H5.71238V53.739C5.71238 54.558 5.15988 55.0455 4.37988 55.0455C3.59988 55.0455 3.04738 54.558 3.04738 53.739H3.79488C3.80138 54.116 3.98338 54.389 4.37988 54.389C4.77638 54.389 4.96488 54.116 4.96488 53.739ZM10.2913 55L9.96632 54.077H8.07482L7.74982 55H6.97632L8.59482 50.476H9.45282L11.0713 55H10.2913ZM9.75832 53.4725L9.02382 51.373L8.28282 53.4725H9.75832ZM13.868 54.2395L15.2135 50.4825H15.9935L14.297 55H13.439L11.736 50.4825H12.529L13.868 54.2395ZM19.9867 55L19.6617 54.077H17.7702L17.4452 55H16.6717L18.2902 50.476H19.1482L20.7667 55H19.9867ZM19.4537 53.4725L18.7192 51.373L17.9782 53.4725H19.4537ZM24.844 53.7195C24.844 54.3955 24.2915 55.0455 23.284 55.0455C22.3805 55.0455 21.685 54.5515 21.685 53.752H22.478C22.5105 54.1225 22.7705 54.4215 23.284 54.4215C23.804 54.4215 24.0965 54.142 24.0965 53.7585C24.0965 52.6665 21.698 53.375 21.698 51.711C21.698 50.918 22.3285 50.424 23.2515 50.424C24.116 50.424 24.727 50.879 24.792 51.6525H23.973C23.947 51.347 23.6805 51.0675 23.2125 51.0545C22.7835 51.0415 22.452 51.2495 22.452 51.685C22.452 52.7055 24.844 52.0685 24.844 53.7195ZM25.7963 52.7315C25.7963 51.3795 26.8298 50.424 28.1038 50.424C29.0463 50.424 29.8588 50.8985 30.2033 51.7825H29.3128C29.0723 51.3015 28.6433 51.074 28.1038 51.074C27.2068 51.074 26.5568 51.711 26.5568 52.7315C26.5568 53.752 27.2068 54.3955 28.1038 54.3955C28.6433 54.3955 29.0723 54.168 29.3128 53.687H30.2033C29.8588 54.571 29.0463 55.039 28.1038 55.039C26.8298 55.039 25.7963 54.09 25.7963 52.7315ZM33.7942 51.8345C33.7942 51.3795 33.5342 51.087 32.9557 51.087H32.1367V52.6015H32.9557C33.5342 52.6015 33.7942 52.283 33.7942 51.8345ZM31.3957 50.4825H32.9557C34.0282 50.4825 34.5547 51.1 34.5547 51.8345C34.5547 52.3675 34.2687 52.9395 33.5082 53.128L34.6262 55H33.7422L32.7022 53.193H32.1367V55H31.3957V50.4825ZM35.8276 55V50.4825H36.5686V55H35.8276ZM38.6075 52.5625H39.4265C40.005 52.5625 40.265 52.283 40.265 51.828C40.265 51.36 40.005 51.087 39.4265 51.087H38.6075V52.5625ZM41.0255 51.828C41.0255 52.4715 40.603 53.167 39.4265 53.167H38.6075V55H37.8665V50.4825H39.4265C40.499 50.4825 41.0255 51.0935 41.0255 51.828ZM41.8232 51.087V50.4825H44.9757V51.087H43.7732V55H43.0322V51.087H41.8232Z" fill="white"/>
<path d="M0 0H48V46H0V0Z" fill="#F0DB4F"/>
<g clip-path="url(#clip1_1_2)">
<path d="M0 -2H48V46H0V-2Z" fill="#F0DB4F"/>
<path d="M44.0715 34.5521C43.7202 32.362 42.292 30.5232 38.0624 28.8076C36.5932 28.1323 34.9551 27.6487 34.4669 26.5354C34.2935 25.8875 34.2707 25.5224 34.3802 25.13C34.6951 23.857 36.2144 23.4601 37.419 23.8251C38.1947 24.0852 38.9293 24.6829 39.3719 25.6365C41.4433 24.2951 41.4388 24.3042 42.8852 23.3826C42.3559 22.5613 42.073 22.1825 41.7262 21.8312C40.4806 20.4396 38.7833 19.7232 36.0684 19.778C35.5985 19.8373 35.124 19.9011 34.654 19.9605C33.2989 20.3027 32.0076 21.0145 31.2502 21.9681C28.9779 24.5461 29.6259 29.0586 32.3909 30.9156C35.1148 32.9597 39.1163 33.4251 39.6274 35.3369C40.1247 37.6776 37.9073 38.435 35.7034 38.1658C34.0791 37.8282 33.1757 37.0023 32.1992 35.5012C30.4016 36.5415 30.4016 36.5415 28.5537 37.6046C28.9917 38.5628 29.4525 38.9962 30.1871 39.8267C33.6639 43.3537 42.365 43.1803 43.9255 37.8419C43.9894 37.6593 44.4092 36.4365 44.0715 34.5521ZM26.0943 20.0608H21.6046C21.6046 23.9392 21.5864 27.7901 21.5864 31.6684C21.5864 34.1369 21.7141 36.4 21.3126 37.0935C20.6556 38.4577 18.9537 38.289 18.178 38.0243C17.3886 37.6365 16.9871 37.0844 16.5217 36.3042C16.394 36.0806 16.2981 35.9072 16.2662 35.8935C15.048 36.6373 13.8342 37.3855 12.616 38.1293C13.2229 39.3749 14.1171 40.4563 15.2624 41.1589C16.9734 42.1855 19.273 42.5003 21.6776 41.9482C23.2426 41.492 24.5932 40.5475 25.3004 39.1103C26.3224 37.2259 26.1034 34.9445 26.0943 32.4213C26.1171 28.3057 26.0943 24.1901 26.0943 20.0608Z" fill="#323330"/>
</g>
</g>
<defs>
<clipPath id="clip0_1_2">
<rect width="48" height="58.8" fill="white"/>
</clipPath>
<clipPath id="clip1_1_2">
<rect width="48" height="48" fill="white" transform="translate(0 -2)"/>
</clipPath>
</defs>
</svg>
