<svg width="48" height="59" viewBox="0 0 48 59" fill="none" xmlns="http://www.w3.org/2000/svg">
<g clip-path="url(#clip0_1_2)">
<path d="M0 46H48V59H0V46Z" fill="#14353E"/>
<path d="M15.8639 51.8345C15.8639 51.3795 15.6039 51.087 15.0254 51.087H14.2064V52.6015H15.0254C15.6039 52.6015 15.8639 52.283 15.8639 51.8345ZM13.4654 50.4825H15.0254C16.0979 50.4825 16.6244 51.1 16.6244 51.8345C16.6244 52.3675 16.3384 52.9395 15.5779 53.128L16.6959 55H15.8119L14.7719 53.193H14.2064V55H13.4654V50.4825ZM20.3934 50.476V51.0805H18.6384V52.4065H20.1984V53.011H18.6384V54.3955H20.3934V55H17.8974V50.476H20.3934ZM24.6796 55L24.3546 54.077H22.4631L22.1381 55H21.3646L22.9831 50.476H23.8411L25.4596 55H24.6796ZM24.1466 53.4725L23.4121 51.373L22.6711 53.4725H24.1466ZM26.2413 52.7315C26.2413 51.3795 27.2748 50.424 28.5488 50.424C29.4913 50.424 30.3038 50.8985 30.6483 51.7825H29.7578C29.5173 51.3015 29.0883 51.074 28.5488 51.074C27.6518 51.074 27.0018 51.711 27.0018 52.7315C27.0018 53.752 27.6518 54.3955 28.5488 54.3955C29.0883 54.3955 29.5173 54.168 29.7578 53.687H30.6483C30.3038 54.571 29.4913 55.039 28.5488 55.039C27.2748 55.039 26.2413 54.09 26.2413 52.7315ZM31.6066 51.087V50.4825H34.7591V51.087H33.5566V55H32.8156V51.087H31.6066Z" fill="white"/>
<path d="M0 0H48V46H0V0Z" fill="#245C6B"/>
<path d="M43 23.0038C43 20.562 39.9305 18.248 35.2244 16.813C36.3104 12.0346 35.8278 8.23303 33.701 7.01591C33.2108 6.73041 32.6376 6.59517 32.0116 6.59517V8.27059C32.3585 8.27059 32.6376 8.33821 32.8714 8.46593C33.8971 9.05195 34.342 11.2833 33.9951 14.1533C33.9122 14.8596 33.7764 15.6034 33.6105 16.3622C32.1323 16.0016 30.5183 15.7236 28.8214 15.5433C27.8033 14.1533 26.7475 12.8911 25.6841 11.7867C28.1427 9.51025 30.4505 8.26308 32.0192 8.26308V6.58766C29.9452 6.58766 27.2301 8.06023 24.4849 10.6147C21.7397 8.07525 19.0247 6.61771 16.9507 6.61771V8.29313C18.5118 8.29313 20.8272 9.53279 23.2858 11.7942C22.2299 12.8987 21.1741 14.1533 20.171 15.5433C18.4666 15.7236 16.8526 16.0016 15.3744 16.3697C15.201 15.6184 15.0728 14.8896 14.9823 14.1909C14.6278 11.3209 15.0652 9.08952 16.0834 8.49599C16.3096 8.36075 16.6038 8.30065 16.9507 8.30065V6.62523C16.3172 6.62523 15.744 6.76046 15.2462 7.04596C13.127 8.26308 12.6519 12.0572 13.7454 16.8205C9.05442 18.263 6 20.5695 6 23.0038C6 25.4455 9.06951 27.7595 13.7756 29.1945C12.6896 33.9729 13.1722 37.7745 15.299 38.9916C15.7892 39.2771 16.3624 39.4123 16.9959 39.4123C19.0699 39.4123 21.785 37.9398 24.5302 35.3853C27.2754 37.9247 29.9904 39.3823 32.0644 39.3823C32.6979 39.3823 33.2711 39.247 33.7689 38.9615C35.8881 37.7444 36.3632 33.9503 35.2697 29.187C39.9456 27.752 43 25.438 43 23.0038ZM33.1806 17.9925C32.9015 18.9617 32.5546 19.961 32.1625 20.9602C31.8532 20.3591 31.5289 19.7581 31.1745 19.1571C30.8276 18.556 30.458 17.97 30.0885 17.399C31.1594 17.5568 32.1926 17.7521 33.1806 17.9925ZM29.7265 25.994C29.1382 27.0082 28.5349 27.9699 27.9089 28.864C26.7852 28.9616 25.6464 29.0142 24.5 29.0142C23.3612 29.0142 22.2224 28.9616 21.1062 28.8715C20.4802 27.9774 19.8693 27.0233 19.2811 26.0165C18.7079 25.0323 18.1875 24.033 17.7124 23.0263C18.18 22.0195 18.7079 21.0128 19.2735 20.0286C19.8618 19.0143 20.4651 18.0526 21.0911 17.1586C22.2148 17.0609 23.3537 17.0083 24.5 17.0083C25.6388 17.0083 26.7776 17.0609 27.8938 17.1511C28.5198 18.0451 29.1307 18.9993 29.7189 20.006C30.2921 20.9902 30.8125 21.9895 31.2876 22.9962C30.8125 24.003 30.2921 25.0097 29.7265 25.994ZM32.1625 25.0173C32.5697 26.024 32.9166 27.0308 33.2032 28.0075C32.2152 28.2479 31.1745 28.4507 30.096 28.6085C30.4656 28.03 30.8351 27.4365 31.182 26.8279C31.5289 26.2269 31.8532 25.6183 32.1625 25.0173ZM24.5151 33.0337C23.8137 32.3125 23.1123 31.5086 22.4185 30.6295C23.0972 30.6596 23.7911 30.6821 24.4925 30.6821C25.2014 30.6821 25.9028 30.6671 26.5891 30.6295C25.9103 31.5086 25.2089 32.3125 24.5151 33.0337ZM18.904 28.6085C17.8331 28.4507 16.7998 28.2554 15.8119 28.015C16.0909 27.0458 16.4378 26.0466 16.83 25.0473C17.1392 25.6484 17.4635 26.2494 17.818 26.8505C18.1724 27.4515 18.5344 28.0375 18.904 28.6085ZM24.4774 12.9738C25.1788 13.695 25.8801 14.4989 26.574 15.378C25.8952 15.3479 25.2014 15.3254 24.5 15.3254C23.7911 15.3254 23.0897 15.3404 22.4034 15.378C23.0821 14.4989 23.7835 13.695 24.4774 12.9738ZM18.8965 17.399C18.5269 17.9775 18.1574 18.571 17.8104 19.1796C17.4635 19.7806 17.1392 20.3817 16.83 20.9827C16.4227 19.976 16.0758 18.9692 15.7892 17.9925C16.7772 17.7596 17.818 17.5568 18.8965 17.399ZM12.0711 26.8054C9.40135 25.6709 7.67428 24.1833 7.67428 23.0038C7.67428 21.8242 9.40135 20.3291 12.0711 19.2021C12.7197 18.9241 13.4287 18.6762 14.1602 18.4433C14.5901 19.9159 15.1557 21.4485 15.8571 23.0188C15.1633 24.5815 14.6052 26.1067 14.1828 27.5717C13.4362 27.3388 12.7273 27.0834 12.0711 26.8054ZM16.1286 37.5416C15.1029 36.9556 14.658 34.7242 15.0049 31.8542C15.0879 31.1479 15.2236 30.4041 15.3895 29.6453C16.8677 30.0059 18.4817 30.2839 20.1786 30.4642C21.1967 31.8542 22.2525 33.1164 23.3159 34.2208C20.8573 36.4973 18.5495 37.7444 16.9808 37.7444C16.6415 37.7369 16.3549 37.6693 16.1286 37.5416ZM34.0177 31.8166C34.3722 34.6866 33.9348 36.918 32.9166 37.5115C32.6904 37.6468 32.3962 37.7069 32.0493 37.7069C30.4882 37.7069 28.1729 36.4672 25.7142 34.2058C26.7701 33.1013 27.8259 31.8467 28.829 30.4567C30.5334 30.2764 32.1474 29.9984 33.6256 29.6303C33.799 30.3891 33.9348 31.1179 34.0177 31.8166ZM36.9213 26.8054C36.2727 27.0834 35.5638 27.3313 34.8322 27.5642C34.4024 26.0916 33.8367 24.559 33.1353 22.9887C33.8292 21.426 34.3873 19.9008 34.8096 18.4358C35.5563 18.6687 36.2652 18.9241 36.9289 19.2021C39.5987 20.3366 41.3257 21.8242 41.3257 23.0038C41.3182 24.1833 39.5911 25.6784 36.9213 26.8054Z" fill="#61DAFB"/>
<path d="M24.4925 26.4372C26.396 26.4372 27.9391 24.9 27.9391 23.0038C27.9391 21.1075 26.396 19.5703 24.4925 19.5703C22.589 19.5703 21.0459 21.1075 21.0459 23.0038C21.0459 24.9 22.589 26.4372 24.4925 26.4372Z" fill="#61DAFB"/>
</g>
<defs>
<clipPath id="clip0_1_2">
<rect width="48" height="58.8" fill="white"/>
</clipPath>
</defs>
</svg>
