<svg width="48" height="59" viewBox="0 0 48 59" fill="none" xmlns="http://www.w3.org/2000/svg">
<path d="M0 46H48V59H0V46Z" fill="#8F2915"/>
<path d="M10.5827 53.7195C10.5827 54.3955 10.0302 55.0455 9.02268 55.0455C8.11918 55.0455 7.42368 54.5515 7.42368 53.752H8.21668C8.24918 54.1225 8.50918 54.4215 9.02268 54.4215C9.54268 54.4215 9.83518 54.142 9.83518 53.7585C9.83518 52.6665 7.43668 53.375 7.43668 51.711C7.43668 50.918 8.06718 50.424 8.99018 50.424C9.85468 50.424 10.4657 50.879 10.5307 51.6525H9.71168C9.68568 51.347 9.41918 51.0675 8.95118 51.0545C8.52218 51.0415 8.19068 51.2495 8.19068 51.685C8.19068 52.7055 10.5827 52.0685 10.5827 53.7195ZM13.55 54.2395L14.8955 50.4825H15.6755L13.979 55H13.121L11.418 50.4825H12.211L13.55 54.2395ZM19.1162 50.476V51.0805H17.3612V52.4065H18.9212V53.011H17.3612V54.3955H19.1162V55H16.6202V50.476H19.1162ZM20.3539 50.4825H21.0949V54.402H22.6224V55H20.3539V50.4825ZM23.3331 51.087V50.4825H26.4856V51.087H25.2831V55H24.5421V51.087H23.3331ZM30.057 50.476V51.0805H28.302V52.4065H29.862V53.011H28.302V54.3955H30.057V55H27.561V50.476H30.057ZM33.7842 55L32.0357 52.9785V55H31.2947V50.4825H32.0357V52.543L33.7907 50.4825H34.7202L32.7572 52.7445L34.7527 55H33.7842ZM35.733 55V50.4825H36.474V55H35.733ZM37.5379 51.087V50.4825H40.6904V51.087H39.4879V55H38.7469V51.087H37.5379Z" fill="white"/>
<path d="M0 0H48V46H0V0Z" fill="#EF4423"/>
<path d="M36.1726 10.6086C32.9326 5.9786 26.5426 4.6086 21.9126 7.5486L13.7926 12.7186C13.2426 13.0586 12.7326 13.4586 12.2726 13.9086C11.8126 14.3586 11.3926 14.8486 11.0326 15.3886C10.6726 15.9286 10.3626 16.4986 10.1226 17.0886C9.8826 17.6886 9.7026 18.3086 9.5826 18.9386C9.4826 19.4686 9.4326 20.0086 9.4226 20.5486C9.4226 21.0886 9.4526 21.6286 9.5326 22.1686C9.6126 22.7086 9.7426 23.2286 9.9126 23.7486C10.0826 24.2686 10.2926 24.7586 10.5426 25.2386C10.3726 25.4986 10.2126 25.7686 10.0626 26.0486C9.9126 26.3286 9.7826 26.6086 9.6726 26.9086C9.5626 27.2086 9.4526 27.4986 9.3626 27.7986C9.2726 28.0986 9.2026 28.4086 9.1526 28.7186C8.9226 30.0186 8.9526 31.3586 9.2426 32.6486C9.3926 33.2886 9.5926 33.9186 9.8626 34.5186C10.1326 35.1186 10.4626 35.6986 10.8426 36.2286C14.0826 40.8586 20.4726 42.2286 25.1026 39.2886L33.2226 34.1386C33.7726 33.7986 34.2726 33.3986 34.7426 32.9486C35.2026 32.4986 35.6226 32.0086 35.9826 31.4686C36.3426 30.9386 36.6526 30.3686 36.8926 29.7686C37.1326 29.1686 37.3126 28.5486 37.4326 27.9186C37.5326 27.3886 37.5826 26.8486 37.5826 26.3086C37.5826 25.7686 37.5526 25.2286 37.4726 24.6886C37.3926 24.1586 37.2626 23.6286 37.0926 23.1086C36.9226 22.5986 36.7126 22.0986 36.4626 21.6186C36.6326 21.3586 36.7926 21.0886 36.9426 20.8086C37.0926 20.5286 37.2226 20.2486 37.3326 19.9486C37.4426 19.6486 37.5526 19.3586 37.6426 19.0586C37.7326 18.7586 37.8026 18.4486 37.8626 18.1386C37.9826 17.4886 38.0326 16.8286 38.0126 16.1686C37.9926 15.5086 37.9126 14.8586 37.7726 14.2086C37.6226 13.5686 37.4226 12.9386 37.1526 12.3386C36.8826 11.7386 36.5526 11.1686 36.1726 10.6286" fill="white"/>
<path d="M21.1226 36.7168C20.4826 36.8868 19.8326 36.9468 19.1726 36.9168C18.5126 36.8868 17.8726 36.7468 17.2526 36.5268C16.6326 36.2968 16.0626 35.9768 15.5426 35.5768C15.0226 35.1768 14.5726 34.6968 14.1926 34.1568C13.9626 33.8368 13.7626 33.4868 13.6026 33.1268C13.4426 32.7668 13.3126 32.3868 13.2226 31.9968C13.1326 31.6068 13.0826 31.2168 13.0826 30.8168C13.0826 30.4168 13.1026 30.0268 13.1726 29.6368C13.1826 29.5768 13.1926 29.5068 13.2126 29.4468C13.2226 29.3868 13.2426 29.3168 13.2526 29.2568C13.2726 29.1968 13.2826 29.1268 13.3026 29.0668C13.3226 29.0068 13.3426 28.9468 13.3626 28.8868L13.5126 28.4168L13.9326 28.7268C14.1726 28.8968 14.4226 29.0668 14.6726 29.2168C14.9226 29.3668 15.1826 29.5168 15.4526 29.6468C15.7126 29.7768 15.9926 29.8968 16.2626 30.0068C16.5426 30.1168 16.8126 30.2168 17.1026 30.2968L17.4126 30.3868L17.3826 30.6968C17.3626 30.9068 17.3826 31.1168 17.4526 31.3268C17.4826 31.4268 17.5226 31.5268 17.5626 31.6268C17.6026 31.7268 17.6626 31.8168 17.7226 31.8968C17.8326 32.0568 17.9726 32.2068 18.1326 32.3268C18.2926 32.4468 18.4626 32.5468 18.6526 32.6168C18.8426 32.6868 19.0326 32.7268 19.2326 32.7368C19.4326 32.7468 19.6226 32.7368 19.8226 32.6768C19.8626 32.6668 19.9126 32.6468 19.9526 32.6368C19.9926 32.6268 20.0426 32.6068 20.0826 32.5868C20.1226 32.5668 20.1626 32.5468 20.2026 32.5268C20.2426 32.5068 20.2826 32.4868 20.3226 32.4568L28.4326 27.2868C28.5326 27.2268 28.6226 27.1568 28.7126 27.0668C28.7926 26.9868 28.8726 26.8968 28.9426 26.7968C29.0126 26.6968 29.0626 26.5968 29.1026 26.4868C29.1426 26.3768 29.1826 26.2668 29.2026 26.1468C29.2226 26.0268 29.2326 25.9068 29.2326 25.7868C29.2326 25.6668 29.2126 25.5468 29.1926 25.4368C29.1626 25.3168 29.1326 25.2068 29.0826 25.0968C29.0326 24.9868 28.9726 24.8868 28.9026 24.7868C28.7926 24.6268 28.6526 24.4768 28.4926 24.3568C28.3326 24.2368 28.1626 24.1368 27.9726 24.0668C27.7826 23.9968 27.5926 23.9568 27.3926 23.9468C27.1926 23.9468 26.9926 23.9568 26.8026 24.0068C26.7626 24.0168 26.7126 24.0368 26.6726 24.0468C26.6326 24.0568 26.5926 24.0768 26.5426 24.0968C26.5026 24.1168 26.4626 24.1368 26.4226 24.1568C26.3826 24.1768 26.3426 24.1968 26.3026 24.2268L23.1926 26.2068C23.0626 26.2868 22.9326 26.3668 22.8026 26.4368C22.6726 26.5068 22.5326 26.5768 22.3926 26.6368C22.2526 26.6968 22.1126 26.7568 21.9726 26.8068C21.8326 26.8568 21.6826 26.8968 21.5426 26.9368C20.9126 27.0968 20.2526 27.1668 19.6026 27.1368C18.9526 27.1068 18.3026 26.9668 17.6926 26.7468C17.0826 26.5168 16.5026 26.1968 15.9826 25.7968C15.4626 25.3968 15.0126 24.9168 14.6326 24.3768C14.4026 24.0568 14.2026 23.7068 14.0426 23.3468C13.8826 22.9868 13.7526 22.6068 13.6726 22.2168C13.5826 21.8268 13.5426 21.4368 13.5326 21.0368C13.5326 20.6368 13.5526 20.2468 13.6226 19.8568C13.7626 19.0868 14.0526 18.3568 14.4926 17.7168C14.9326 17.0668 15.4926 16.5168 16.1526 16.1068L24.2826 10.9368C24.4126 10.8568 24.5426 10.7768 24.6726 10.7068C24.8026 10.6368 24.9426 10.5668 25.0726 10.5068C25.2126 10.4468 25.3526 10.3868 25.4926 10.3368C25.6326 10.2868 25.7726 10.2468 25.9226 10.2068C26.5626 10.0468 27.2126 9.97678 27.8726 10.0068C28.5326 10.0368 29.1726 10.1768 29.7926 10.3968C30.4126 10.6268 30.9826 10.9468 31.5026 11.3468C32.0226 11.7468 32.4726 12.2268 32.8526 12.7668C33.0826 13.0868 33.2826 13.4368 33.4426 13.7968C33.6026 14.1568 33.7326 14.5368 33.8226 14.9268C33.9126 15.3168 33.9626 15.7068 33.9626 16.1068C33.9626 16.5068 33.9426 16.8968 33.8726 17.2868C33.8626 17.3468 33.8426 17.4168 33.8326 17.4768C33.8226 17.5368 33.8026 17.6068 33.7826 17.6668C33.7626 17.7268 33.7526 17.7968 33.7326 17.8568C33.7126 17.9168 33.6926 17.9868 33.6726 18.0468L33.5126 18.5168L33.1026 18.2068C32.8626 18.0268 32.6126 17.8668 32.3626 17.7068C32.1126 17.5568 31.8526 17.4068 31.5826 17.2768C31.0526 17.0068 30.4926 16.7868 29.9226 16.6168L29.6126 16.5268L29.6426 16.2168C29.6426 16.1068 29.6426 16.0068 29.6426 15.8968C29.6426 15.7868 29.6126 15.6868 29.5826 15.5868C29.5526 15.4868 29.5126 15.3868 29.4726 15.2868C29.4226 15.1868 29.3726 15.0968 29.3126 15.0068C29.2026 14.8468 29.0626 14.7068 28.9026 14.5868C28.7426 14.4668 28.5726 14.3768 28.3926 14.3068C28.0226 14.1768 27.6226 14.1568 27.2426 14.2568C27.2026 14.2668 27.1526 14.2868 27.1126 14.2968C27.0726 14.3168 27.0226 14.3268 26.9826 14.3468C26.9426 14.3668 26.9026 14.3868 26.8626 14.4068C26.8226 14.4268 26.7826 14.4468 26.7426 14.4768L18.6226 19.6368C18.5226 19.6968 18.4326 19.7668 18.3426 19.8568C18.2526 19.9468 18.1826 20.0268 18.1126 20.1268C18.0426 20.2268 17.9926 20.3268 17.9526 20.4368C17.9126 20.5468 17.8726 20.6568 17.8526 20.7768C17.8326 20.8968 17.8226 21.0168 17.8226 21.1368C17.8226 21.3768 17.8826 21.6168 17.9826 21.8368C18.0326 21.9468 18.0926 22.0468 18.1626 22.1468C18.2726 22.3068 18.4126 22.4468 18.5626 22.5668C18.7226 22.6868 18.8926 22.7868 19.0726 22.8568C19.4426 22.9968 19.8426 23.0168 20.2326 22.9168C20.2726 22.9068 20.3226 22.8868 20.3626 22.8768C20.4026 22.8568 20.4426 22.8468 20.4926 22.8268C20.5326 22.8068 20.5726 22.7868 20.6126 22.7668C20.6526 22.7468 20.6926 22.7268 20.7326 22.6968L23.8426 20.7268C23.9726 20.6468 24.1026 20.5668 24.2326 20.4968C24.3626 20.4268 24.5026 20.3568 24.6426 20.2968C24.7826 20.2368 24.9226 20.1768 25.0626 20.1268C25.2026 20.0768 25.3526 20.0368 25.4926 19.9968C26.1326 19.8268 26.7826 19.7668 27.4426 19.7968C28.1026 19.8268 28.7426 19.9668 29.3626 20.1868C29.9726 20.4168 30.5526 20.7368 31.0726 21.1368C31.5926 21.5368 32.0426 22.0168 32.4226 22.5568C32.6526 22.8768 32.8526 23.2268 33.0126 23.5868C33.1726 23.9468 33.3026 24.3268 33.3926 24.7168C33.4826 25.1068 33.5326 25.4968 33.5426 25.8968C33.5426 26.2968 33.5226 26.6868 33.4526 27.0768C33.3826 27.4568 33.2726 27.8368 33.1326 28.1968C32.9826 28.5568 32.8026 28.8968 32.5826 29.2268C32.3626 29.5468 32.1126 29.8468 31.8326 30.1168C31.5526 30.3868 31.2426 30.6268 30.9126 30.8368L22.7926 36.0068C22.6626 36.0868 22.5326 36.1668 22.4026 36.2368C22.2726 36.3068 22.1326 36.3768 21.9926 36.4368C21.8526 36.4968 21.7126 36.5568 21.5726 36.6068C21.4326 36.6568 21.2826 36.6968 21.1426 36.7368" fill="#EF4423"/>
</svg>
