<svg
  width="48"
  height="59"
  viewBox="0 0 48 59"
  fill="none"
  xmlns="http://www.w3.org/2000/svg"
>
  <path
    d="M4 0H44C46.21 0 48 1.67812 48 3.75V45H0V3.75C0 1.67812 1.79 0 4 0Z"
    fill="#EF4423"
  />
  <path
    d="M36.1726 9.6086C32.9326 4.9786 26.5426 3.6086 21.9126 6.5486L13.7926 11.7186C13.2426 12.0586 12.7326 12.4586 12.2726 12.9086C11.8126 13.3586 11.3926 13.8486 11.0326 14.3886C10.6726 14.9286 10.3626 15.4986 10.1226 16.0886C9.8826 16.6886 9.7026 17.3086 9.5826 17.9386C9.4826 18.4686 9.4326 19.0086 9.4226 19.5486C9.4226 20.0886 9.4526 20.6286 9.5326 21.1686C9.6126 21.7086 9.7426 22.2286 9.9126 22.7486C10.0826 23.2686 10.2926 23.7586 10.5426 24.2386C10.3726 24.4986 10.2126 24.7686 10.0626 25.0486C9.9126 25.3286 9.7826 25.6086 9.6726 25.9086C9.5626 26.2086 9.4526 26.4986 9.3626 26.7986C9.2726 27.0986 9.2026 27.4086 9.1526 27.7186C8.9226 29.0186 8.9526 30.3586 9.2426 31.6486C9.3926 32.2886 9.5926 32.9186 9.8626 33.5186C10.1326 34.1186 10.4626 34.6986 10.8426 35.2286C14.0826 39.8586 20.4726 41.2286 25.1026 38.2886L33.2226 33.1386C33.7726 32.7986 34.2726 32.3986 34.7426 31.9486C35.2026 31.4986 35.6226 31.0086 35.9826 30.4686C36.3426 29.9386 36.6526 29.3686 36.8926 28.7686C37.1326 28.1686 37.3126 27.5486 37.4326 26.9186C37.5326 26.3886 37.5826 25.8486 37.5826 25.3086C37.5826 24.7686 37.5526 24.2286 37.4726 23.6886C37.3926 23.1586 37.2626 22.6286 37.0926 22.1086C36.9226 21.5986 36.7126 21.0986 36.4626 20.6186C36.6326 20.3586 36.7926 20.0886 36.9426 19.8086C37.0926 19.5286 37.2226 19.2486 37.3326 18.9486C37.4426 18.6486 37.5526 18.3586 37.6426 18.0586C37.7326 17.7586 37.8026 17.4486 37.8626 17.1386C37.9826 16.4886 38.0326 15.8286 38.0126 15.1686C37.9926 14.5086 37.9126 13.8586 37.7726 13.2086C37.6226 12.5686 37.4226 11.9386 37.1526 11.3386C36.8826 10.7386 36.5526 10.1686 36.1726 9.6286"
    fill="white"
  />
  <path
    d="M21.1226 35.7168C20.4826 35.8868 19.8326 35.9468 19.1726 35.9168C18.5126 35.8868 17.8726 35.7468 17.2526 35.5268C16.6326 35.2968 16.0626 34.9768 15.5426 34.5768C15.0226 34.1768 14.5726 33.6968 14.1926 33.1568C13.9626 32.8368 13.7626 32.4868 13.6026 32.1268C13.4426 31.7668 13.3126 31.3868 13.2226 30.9968C13.1326 30.6068 13.0826 30.2168 13.0826 29.8168C13.0826 29.4168 13.1026 29.0268 13.1726 28.6368C13.1826 28.5768 13.1926 28.5068 13.2126 28.4468C13.2226 28.3868 13.2426 28.3168 13.2526 28.2568C13.2726 28.1968 13.2826 28.1268 13.3026 28.0668C13.3226 28.0068 13.3426 27.9468 13.3626 27.8868L13.5126 27.4168L13.9326 27.7268C14.1726 27.8968 14.4226 28.0668 14.6726 28.2168C14.9226 28.3668 15.1826 28.5168 15.4526 28.6468C15.7126 28.7768 15.9926 28.8968 16.2626 29.0068C16.5426 29.1168 16.8126 29.2168 17.1026 29.2968L17.4126 29.3868L17.3826 29.6968C17.3626 29.9068 17.3826 30.1168 17.4526 30.3268C17.4826 30.4268 17.5226 30.5268 17.5626 30.6268C17.6026 30.7268 17.6626 30.8168 17.7226 30.8968C17.8326 31.0568 17.9726 31.2068 18.1326 31.3268C18.2926 31.4468 18.4626 31.5468 18.6526 31.6168C18.8426 31.6868 19.0326 31.7268 19.2326 31.7368C19.4326 31.7468 19.6226 31.7368 19.8226 31.6768C19.8626 31.6668 19.9126 31.6468 19.9526 31.6368C19.9926 31.6268 20.0426 31.6068 20.0826 31.5868C20.1226 31.5668 20.1626 31.5468 20.2026 31.5268C20.2426 31.5068 20.2826 31.4868 20.3226 31.4568L28.4326 26.2868C28.5326 26.2268 28.6226 26.1568 28.7126 26.0668C28.7926 25.9868 28.8726 25.8968 28.9426 25.7968C29.0126 25.6968 29.0626 25.5968 29.1026 25.4868C29.1426 25.3768 29.1826 25.2668 29.2026 25.1468C29.2226 25.0268 29.2326 24.9068 29.2326 24.7868C29.2326 24.6668 29.2126 24.5468 29.1926 24.4368C29.1626 24.3168 29.1326 24.2068 29.0826 24.0968C29.0326 23.9868 28.9726 23.8868 28.9026 23.7868C28.7926 23.6268 28.6526 23.4768 28.4926 23.3568C28.3326 23.2368 28.1626 23.1368 27.9726 23.0668C27.7826 22.9968 27.5926 22.9568 27.3926 22.9468C27.1926 22.9468 26.9926 22.9568 26.8026 23.0068C26.7626 23.0168 26.7126 23.0368 26.6726 23.0468C26.6326 23.0568 26.5926 23.0768 26.5426 23.0968C26.5026 23.1168 26.4626 23.1368 26.4226 23.1568C26.3826 23.1768 26.3426 23.1968 26.3026 23.2268L23.1926 25.2068C23.0626 25.2868 22.9326 25.3668 22.8026 25.4368C22.6726 25.5068 22.5326 25.5768 22.3926 25.6368C22.2526 25.6968 22.1126 25.7568 21.9726 25.8068C21.8326 25.8568 21.6826 25.8968 21.5426 25.9368C20.9126 26.0968 20.2526 26.1668 19.6026 26.1368C18.9526 26.1068 18.3026 25.9668 17.6926 25.7468C17.0826 25.5168 16.5026 25.1968 15.9826 24.7968C15.4626 24.3968 15.0126 23.9168 14.6326 23.3768C14.4026 23.0568 14.2026 22.7068 14.0426 22.3468C13.8826 21.9868 13.7526 21.6068 13.6726 21.2168C13.5826 20.8268 13.5426 20.4368 13.5326 20.0368C13.5326 19.6368 13.5526 19.2468 13.6226 18.8568C13.7626 18.0868 14.0526 17.3568 14.4926 16.7168C14.9326 16.0668 15.4926 15.5168 16.1526 15.1068L24.2826 9.93678C24.4126 9.85678 24.5426 9.77678 24.6726 9.70678C24.8026 9.63678 24.9426 9.56678 25.0726 9.50678C25.2126 9.44678 25.3526 9.38678 25.4926 9.33678C25.6326 9.28678 25.7726 9.24678 25.9226 9.20678C26.5626 9.04678 27.2126 8.97678 27.8726 9.00678C28.5326 9.03678 29.1726 9.17678 29.7926 9.39678C30.4126 9.62678 30.9826 9.94678 31.5026 10.3468C32.0226 10.7468 32.4726 11.2268 32.8526 11.7668C33.0826 12.0868 33.2826 12.4368 33.4426 12.7968C33.6026 13.1568 33.7326 13.5368 33.8226 13.9268C33.9126 14.3168 33.9626 14.7068 33.9626 15.1068C33.9626 15.5068 33.9426 15.8968 33.8726 16.2868C33.8626 16.3468 33.8426 16.4168 33.8326 16.4768C33.8226 16.5368 33.8026 16.6068 33.7826 16.6668C33.7626 16.7268 33.7526 16.7968 33.7326 16.8568C33.7126 16.9168 33.6926 16.9868 33.6726 17.0468L33.5126 17.5168L33.1026 17.2068C32.8626 17.0268 32.6126 16.8668 32.3626 16.7068C32.1126 16.5568 31.8526 16.4068 31.5826 16.2768C31.0526 16.0068 30.4926 15.7868 29.9226 15.6168L29.6126 15.5268L29.6426 15.2168C29.6426 15.1068 29.6426 15.0068 29.6426 14.8968C29.6426 14.7868 29.6126 14.6868 29.5826 14.5868C29.5526 14.4868 29.5126 14.3868 29.4726 14.2868C29.4226 14.1868 29.3726 14.0968 29.3126 14.0068C29.2026 13.8468 29.0626 13.7068 28.9026 13.5868C28.7426 13.4668 28.5726 13.3768 28.3926 13.3068C28.0226 13.1768 27.6226 13.1568 27.2426 13.2568C27.2026 13.2668 27.1526 13.2868 27.1126 13.2968C27.0726 13.3168 27.0226 13.3268 26.9826 13.3468C26.9426 13.3668 26.9026 13.3868 26.8626 13.4068C26.8226 13.4268 26.7826 13.4468 26.7426 13.4768L18.6226 18.6368C18.5226 18.6968 18.4326 18.7668 18.3426 18.8568C18.2526 18.9468 18.1826 19.0268 18.1126 19.1268C18.0426 19.2268 17.9926 19.3268 17.9526 19.4368C17.9126 19.5468 17.8726 19.6568 17.8526 19.7768C17.8326 19.8968 17.8226 20.0168 17.8226 20.1368C17.8226 20.3768 17.8826 20.6168 17.9826 20.8368C18.0326 20.9468 18.0926 21.0468 18.1626 21.1468C18.2726 21.3068 18.4126 21.4468 18.5626 21.5668C18.7226 21.6868 18.8926 21.7868 19.0726 21.8568C19.4426 21.9968 19.8426 22.0168 20.2326 21.9168C20.2726 21.9068 20.3226 21.8868 20.3626 21.8768C20.4026 21.8568 20.4426 21.8468 20.4926 21.8268C20.5326 21.8068 20.5726 21.7868 20.6126 21.7668C20.6526 21.7468 20.6926 21.7268 20.7326 21.6968L23.8426 19.7268C23.9726 19.6468 24.1026 19.5668 24.2326 19.4968C24.3626 19.4268 24.5026 19.3568 24.6426 19.2968C24.7826 19.2368 24.9226 19.1768 25.0626 19.1268C25.2026 19.0768 25.3526 19.0368 25.4926 18.9968C26.1326 18.8268 26.7826 18.7668 27.4426 18.7968C28.1026 18.8268 28.7426 18.9668 29.3626 19.1868C29.9726 19.4168 30.5526 19.7368 31.0726 20.1368C31.5926 20.5368 32.0426 21.0168 32.4226 21.5568C32.6526 21.8768 32.8526 22.2268 33.0126 22.5868C33.1726 22.9468 33.3026 23.3268 33.3926 23.7168C33.4826 24.1068 33.5326 24.4968 33.5426 24.8968C33.5426 25.2968 33.5226 25.6868 33.4526 26.0768C33.3826 26.4568 33.2726 26.8368 33.1326 27.1968C32.9826 27.5568 32.8026 27.8968 32.5826 28.2268C32.3626 28.5468 32.1126 28.8468 31.8326 29.1168C31.5526 29.3868 31.2426 29.6268 30.9126 29.8368L22.7926 35.0068C22.6626 35.0868 22.5326 35.1668 22.4026 35.2368C22.2726 35.3068 22.1326 35.3768 21.9926 35.4368C21.8526 35.4968 21.7126 35.5568 21.5726 35.6068C21.4326 35.6568 21.2826 35.6968 21.1426 35.7368"
    fill="#EF4423"
  />
  <path
    d="M0 45H48V52.907C48 55.7209 46.21 58 44 58H4C1.79 58 0 55.7081 0 52.907V45Z"
    fill="#B23116"
  />
  <path
    d="M10.808 52.621C10.808 53.349 10.213 54.049 9.128 54.049C8.155 54.049 7.406 53.517 7.406 52.656H8.26C8.295 53.055 8.575 53.377 9.128 53.377C9.688 53.377 10.003 53.076 10.003 52.663C10.003 51.487 7.42 52.25 7.42 50.458C7.42 49.604 8.099 49.072 9.093 49.072C10.024 49.072 10.682 49.562 10.752 50.395H9.87C9.842 50.066 9.555 49.765 9.051 49.751C8.589 49.737 8.232 49.961 8.232 50.43C8.232 51.529 10.808 50.843 10.808 52.621ZM13.6536 53.181L15.1026 49.135H15.9426L14.1156 54H13.1916L11.3576 49.135H12.2116L13.6536 53.181ZM19.298 49.128V49.779H17.408V51.207H19.088V51.858H17.408V53.349H19.298V54H16.61V49.128H19.298ZM20.2809 49.135H21.0789V53.356H22.7239V54H20.2809V49.135ZM23.1392 49.786V49.135H26.5342V49.786H25.2392V54H24.4412V49.786H23.1392ZM30.0304 49.128V49.779H28.1404V51.207H29.8204V51.858H28.1404V53.349H30.0304V54H27.3424V49.128H30.0304ZM33.6943 54L31.8113 51.823V54H31.0133V49.135H31.8113V51.354L33.7013 49.135H34.7023L32.5883 51.571L34.7373 54H33.6943ZM35.443 54V49.135H36.241V54H35.443ZM37.0367 49.786V49.135H40.4317V49.786H39.1367V54H38.3387V49.786H37.0367Z"
    fill="white"
  />
</svg>
