<svg width="48" height="59" viewBox="0 0 48 59" fill="none" xmlns="http://www.w3.org/2000/svg">
<g clip-path="url(#clip0_1_2)">
<path d="M0 46H48V59H0V46Z" fill="#92231B"/>
<path d="M17.3137 53.7195C17.3137 54.3955 16.7612 55.0455 15.7537 55.0455C14.8502 55.0455 14.1547 54.5515 14.1547 53.752H14.9477C14.9802 54.1225 15.2402 54.4215 15.7537 54.4215C16.2737 54.4215 16.5662 54.142 16.5662 53.7585C16.5662 52.6665 14.1677 53.375 14.1677 51.711C14.1677 50.918 14.7982 50.424 15.7212 50.424C16.5857 50.424 17.1967 50.879 17.2617 51.6525H16.4427C16.4167 51.347 16.1502 51.0675 15.6822 51.0545C15.2532 51.0415 14.9217 51.2495 14.9217 51.685C14.9217 52.7055 17.3137 52.0685 17.3137 53.7195ZM19.4296 55.0065L18.1491 50.4825H18.9356L19.8716 54.1615L20.8856 50.4825H21.7176L22.6601 54.142L23.6026 50.4825H24.3956L23.0566 55H22.2181L21.2691 51.581L20.2616 55L19.4296 55.0065ZM25.3317 55V50.4825H26.0727V55H25.3317ZM27.3706 55V50.4825H30.0291V51.087H28.1116V52.4195H29.6066V53.024H28.1116V55H27.3706ZM30.8068 51.087V50.4825H33.9593V51.087H32.7568V55H32.0158V51.087H30.8068Z" fill="white"/>
<path d="M0 0H48V46H0V0Z" fill="#EF3F32"/>
<path d="M27.0008 6.82812C42.1664 17.1422 37.2609 28.5164 37.2609 28.5164C37.2609 28.5164 41.5734 33.3859 39.8305 37.6445C39.8305 37.6445 38.0516 34.6617 35.0688 34.6617C32.1938 34.6617 30.5047 37.6445 24.7188 37.6445C11.8352 37.6445 5.74375 26.8813 5.74375 26.8813C17.3516 34.518 25.2758 29.1094 25.2758 29.1094C20.0469 26.0727 8.92422 11.5539 8.92422 11.5539C18.6094 19.8016 22.7961 21.9758 22.7961 21.9758C20.2984 19.9094 13.2906 9.81094 13.2906 9.81094C18.8969 15.4891 30.0375 23.4133 30.0375 23.4133C33.2 14.6445 27.0008 6.82812 27.0008 6.82812Z" fill="white"/>
</g>
<defs>
<clipPath id="clip0_1_2">
<rect width="48" height="58.8" fill="white"/>
</clipPath>
</defs>
</svg>
