<svg width="48" height="59" viewBox="0 0 48 59" fill="none" xmlns="http://www.w3.org/2000/svg">
<path d="M0 46H48V59H0V46Z" fill="#1D1D1D"/>
<path d="M13.7665 54.2395L15.112 50.4825H15.892L14.1955 55H13.3375L11.6345 50.4825H12.4275L13.7665 54.2395ZM19.3327 50.476V51.0805H17.5777V52.4065H19.1377V53.011H17.5777V54.3955H19.3327V55H16.8367V50.476H19.3327ZM22.9689 51.8345C22.9689 51.3795 22.7089 51.087 22.1304 51.087H21.3114V52.6015H22.1304C22.7089 52.6015 22.9689 52.283 22.9689 51.8345ZM20.5704 50.4825H22.1304C23.2029 50.4825 23.7294 51.1 23.7294 51.8345C23.7294 52.3675 23.4434 52.9395 22.6829 53.128L23.8009 55H22.9169L21.8769 53.193H21.3114V55H20.5704V50.4825ZM24.7553 52.7315C24.7553 51.3795 25.7888 50.424 27.0628 50.424C28.0053 50.424 28.8178 50.8985 29.1623 51.7825H28.2718C28.0313 51.3015 27.6023 51.074 27.0628 51.074C26.1658 51.074 25.5158 51.711 25.5158 52.7315C25.5158 53.752 26.1658 54.3955 27.0628 54.3955C27.6023 54.3955 28.0313 54.168 28.2718 53.687H29.1623C28.8178 54.571 28.0053 55.039 27.0628 55.039C25.7888 55.039 24.7553 54.09 24.7553 52.7315ZM32.8506 50.476V51.0805H31.0956V52.4065H32.6556V53.011H31.0956V54.3955H32.8506V55H30.3546V50.476H32.8506ZM34.0883 50.4825H34.8293V54.402H36.3568V55H34.0883V50.4825Z" fill="white"/>
<path d="M0 0H48V46H0V0Z" fill="#333333"/>
<path fill-rule="evenodd" clip-rule="evenodd" d="M24 7.5625L41.8125 38.4375H6.1875L24 7.5625Z" fill="#DDDDDD"/>
</svg>
